<svg xmlns="http://www.w3.org/2000/svg" viewBox="0 0 1200 800" width="1200" height="800" role="img" aria-label="linux-fundamentals-workshop">
  <rect width="1200" height="800" fill="#0d1117"/>
  <rect x="0" y="0" width="1200" height="800" fill="#0d1117" stroke="undefined" stroke-width="1"/>
<line x1="0" y1="0" x2="0" y2="800" stroke="#2c3540" stroke-width="0.5"/><line x1="80" y1="0" x2="80" y2="800" stroke="#2c3540" stroke-width="0.5"/><line x1="160" y1="0" x2="160" y2="800" stroke="#2c3540" stroke-width="0.5"/><line x1="240" y1="0" x2="240" y2="800" stroke="#2c3540" stroke-width="0.5"/><line x1="320" y1="0" x2="320" y2="800" stroke="#2c3540" stroke-width="0.5"/><line x1="400" y1="0" x2="400" y2="800" stroke="#2c3540" stroke-width="0.5"/><line x1="480" y1="0" x2="480" y2="800" stroke="#2c3540" stroke-width="0.5"/><line x1="560" y1="0" x2="560" y2="800" stroke="#2c3540" stroke-width="0.5"/><line x1="640" y1="0" x2="640" y2="800" stroke="#2c3540" stroke-width="0.5"/><line x1="720" y1="0" x2="720" y2="800" stroke="#2c3540" stroke-width="0.5"/><line x1="800" y1="0" x2="800" y2="800" stroke="#2c3540" stroke-width="0.5"/><line x1="880" y1="0" x2="880" y2="800" stroke="#2c3540" stroke-width="0.5"/><line x1="960" y1="0" x2="960" y2="800" stroke="#2c3540" stroke-width="0.5"/><line x1="1040" y1="0" x2="1040" y2="800" stroke="#2c3540" stroke-width="0.5"/><line x1="1120" y1="0" x2="1120" y2="800" stroke="#2c3540" stroke-width="0.5"/><line x1="1200" y1="0" x2="1200" y2="800" stroke="#2c3540" stroke-width="0.5"/><line x1="0" y1="0" x2="1200" y2="0" stroke="#2c3540" stroke-width="0.5"/><line x1="0" y1="80" x2="1200" y2="80" stroke="#2c3540" stroke-width="0.5"/><line x1="0" y1="160" x2="1200" y2="160" stroke="#2c3540" stroke-width="0.5"/><line x1="0" y1="240" x2="1200" y2="240" stroke="#2c3540" stroke-width="0.5"/><line x1="0" y1="320" x2="1200" y2="320" stroke="#2c3540" stroke-width="0.5"/><line x1="0" y1="400" x2="1200" y2="400" stroke="#2c3540" stroke-width="0.5"/><line x1="0" y1="480" x2="1200" y2="480" stroke="#2c3540" stroke-width="0.5"/><line x1="0" y1="560" x2="1200" y2="560" stroke="#2c3540" stroke-width="0.5"/><line x1="0" y1="640" x2="1200" y2="640" stroke="#2c3540" stroke-width="0.5"/><line x1="0" y1="720" x2="1200" y2="720" stroke="#2c3540" stroke-width="0.5"/><line x1="0" y1="800" x2="1200" y2="800" stroke="#2c3540" stroke-width="0.5"/>
<rect x="83" y="433.7859131488949" width="37.333333333333336" height="226.2140868511051" fill="none" stroke="#4fd1a5" stroke-width="1.5"/><rect x="126.33333333333334" y="371.09549252316356" width="37.333333333333336" height="288.90450747683644" fill="#141a22" stroke="#3a4655" stroke-width="1.5"/><rect x="169.66666666666669" y="236.77196830976754" width="37.333333333333336" height="423.22803169023246" fill="#141a22" stroke="#3a4655" stroke-width="1.5"/><rect x="213" y="613.0300801014528" width="37.333333333333336" height="46.96991989854723" fill="#141a22" stroke="#3a4655" stroke-width="1.5"/><rect x="256.33333333333337" y="97.1715967124328" width="37.333333333333336" height="562.8284032875672" fill="#141a22" stroke="#3a4655" stroke-width="1.5"/><rect x="299.6666666666667" y="446.5717011457309" width="37.333333333333336" height="213.4282988542691" fill="none" stroke="#4fd1a5" stroke-width="1.5"/><rect x="343" y="107.60637377388775" width="37.333333333333336" height="552.3936262261122" fill="#141a22" stroke="#3a4655" stroke-width="1.5"/><rect x="386.33333333333337" y="231.99437679257244" width="37.333333333333336" height="428.00562320742756" fill="none" stroke="#e0b26a" stroke-width="1.5"/><rect x="429.6666666666667" y="291.40449196100235" width="37.333333333333336" height="368.59550803899765" fill="#141a22" stroke="#3a4655" stroke-width="1.5"/><rect x="473" y="527.2123355884105" width="37.333333333333336" height="132.7876644115895" fill="#141a22" stroke="#3a4655" stroke-width="1.5"/><rect x="516.3333333333334" y="334.6300698397681" width="37.333333333333336" height="325.3699301602319" fill="none" stroke="#4fd1a5" stroke-width="1.5"/><rect x="559.6666666666667" y="342.6731405267492" width="37.333333333333336" height="317.3268594732508" fill="#141a22" stroke="#3a4655" stroke-width="1.5"/><rect x="603" y="441.0384482424706" width="37.333333333333336" height="218.96155175752938" fill="#141a22" stroke="#3a4655" stroke-width="1.5"/><rect x="646.3333333333334" y="590.6285559386015" width="37.333333333333336" height="69.3714440613985" fill="#141a22" stroke="#3a4655" stroke-width="1.5"/><rect x="689.6666666666667" y="163.70384346228093" width="37.333333333333336" height="496.29615653771907" fill="none" stroke="#e0b26a" stroke-width="1.5"/><rect x="733" y="569.3220580229536" width="37.333333333333336" height="90.67794197704643" fill="none" stroke="#4fd1a5" stroke-width="1.5"/><rect x="776.3333333333334" y="286.2847952032462" width="37.333333333333336" height="373.7152047967538" fill="#141a22" stroke="#3a4655" stroke-width="1.5"/><rect x="819.6666666666667" y="177.7135714609176" width="37.333333333333336" height="482.2864285390824" fill="#141a22" stroke="#3a4655" stroke-width="1.5"/><rect x="863" y="243.47871439531446" width="37.333333333333336" height="416.52128560468554" fill="#141a22" stroke="#3a4655" stroke-width="1.5"/><rect x="906.3333333333334" y="417.4131701560691" width="37.333333333333336" height="242.5868298439309" fill="#141a22" stroke="#3a4655" stroke-width="1.5"/><rect x="949.6666666666667" y="202.38216464873403" width="37.333333333333336" height="457.61783535126597" fill="none" stroke="#4fd1a5" stroke-width="1.5"/><rect x="993" y="387.8088308824226" width="37.333333333333336" height="272.1911691175774" fill="none" stroke="#e0b26a" stroke-width="1.5"/><rect x="1036.3333333333335" y="242.18907820992172" width="37.333333333333336" height="417.8109217900783" fill="#141a22" stroke="#3a4655" stroke-width="1.5"/><rect x="1079.6666666666667" y="610.9705789759755" width="37.333333333333336" height="49.02942102402449" fill="#141a22" stroke="#3a4655" stroke-width="1.5"/>
<line x1="80" y1="660" x2="1120" y2="660" stroke="#d7dce3" stroke-width="1.5"/>
<text x="80" y="60" font-family="monospace" font-size="15" fill="#3a4655" text-anchor="start" letter-spacing="1">SPECTRUM // 003</text>
<text x="1120" y="760" font-family="monospace" font-size="14" fill="#3a4655" text-anchor="end" letter-spacing="1">sample/48kHz</text>
  </svg>