<svg xmlns="http://www.w3.org/2000/svg" viewBox="0 0 1200 800" width="1200" height="800" role="img" aria-label="outreach-02">
  <rect width="1200" height="800" fill="#0d1117"/>
  <rect x="0" y="0" width="1200" height="800" fill="#0d1117" stroke="undefined" stroke-width="1"/>
<line x1="0" y1="0" x2="0" y2="800" stroke="#2c3540" stroke-width="0.5"/><line x1="80" y1="0" x2="80" y2="800" stroke="#2c3540" stroke-width="0.5"/><line x1="160" y1="0" x2="160" y2="800" stroke="#2c3540" stroke-width="0.5"/><line x1="240" y1="0" x2="240" y2="800" stroke="#2c3540" stroke-width="0.5"/><line x1="320" y1="0" x2="320" y2="800" stroke="#2c3540" stroke-width="0.5"/><line x1="400" y1="0" x2="400" y2="800" stroke="#2c3540" stroke-width="0.5"/><line x1="480" y1="0" x2="480" y2="800" stroke="#2c3540" stroke-width="0.5"/><line x1="560" y1="0" x2="560" y2="800" stroke="#2c3540" stroke-width="0.5"/><line x1="640" y1="0" x2="640" y2="800" stroke="#2c3540" stroke-width="0.5"/><line x1="720" y1="0" x2="720" y2="800" stroke="#2c3540" stroke-width="0.5"/><line x1="800" y1="0" x2="800" y2="800" stroke="#2c3540" stroke-width="0.5"/><line x1="880" y1="0" x2="880" y2="800" stroke="#2c3540" stroke-width="0.5"/><line x1="960" y1="0" x2="960" y2="800" stroke="#2c3540" stroke-width="0.5"/><line x1="1040" y1="0" x2="1040" y2="800" stroke="#2c3540" stroke-width="0.5"/><line x1="1120" y1="0" x2="1120" y2="800" stroke="#2c3540" stroke-width="0.5"/><line x1="1200" y1="0" x2="1200" y2="800" stroke="#2c3540" stroke-width="0.5"/><line x1="0" y1="0" x2="1200" y2="0" stroke="#2c3540" stroke-width="0.5"/><line x1="0" y1="80" x2="1200" y2="80" stroke="#2c3540" stroke-width="0.5"/><line x1="0" y1="160" x2="1200" y2="160" stroke="#2c3540" stroke-width="0.5"/><line x1="0" y1="240" x2="1200" y2="240" stroke="#2c3540" stroke-width="0.5"/><line x1="0" y1="320" x2="1200" y2="320" stroke="#2c3540" stroke-width="0.5"/><line x1="0" y1="400" x2="1200" y2="400" stroke="#2c3540" stroke-width="0.5"/><line x1="0" y1="480" x2="1200" y2="480" stroke="#2c3540" stroke-width="0.5"/><line x1="0" y1="560" x2="1200" y2="560" stroke="#2c3540" stroke-width="0.5"/><line x1="0" y1="640" x2="1200" y2="640" stroke="#2c3540" stroke-width="0.5"/><line x1="0" y1="720" x2="1200" y2="720" stroke="#2c3540" stroke-width="0.5"/><line x1="0" y1="800" x2="1200" y2="800" stroke="#2c3540" stroke-width="0.5"/>
<line x1="80" y1="130.03105323761702" x2="1120" y2="130.03105323761702" stroke="#3a4655" stroke-width="1"/>
<text x="84" y="124.03105323761702" font-family="monospace" font-size="13" fill="#3a4655" text-anchor="start" letter-spacing="1">01.0</text>
<circle cx="1120" cy="130.03105323761702" r="4" fill="#d7dce3" stroke="none" stroke-width="1"/>
<line x1="80" y1="210.83063057623804" x2="1120" y2="210.83063057623804" stroke="#3a4655" stroke-width="1"/>
<text x="84" y="204.83063057623804" font-family="monospace" font-size="13" fill="#3a4655" text-anchor="start" letter-spacing="1">02.0</text>
<circle cx="1120" cy="210.83063057623804" r="4" fill="#d7dce3" stroke="none" stroke-width="1"/>
<line x1="80" y1="299.2562250094488" x2="1120" y2="299.2562250094488" stroke="#3a4655" stroke-width="1"/>
<text x="84" y="293.2562250094488" font-family="monospace" font-size="13" fill="#3a4655" text-anchor="start" letter-spacing="1">03.0</text>
<circle cx="1120" cy="299.2562250094488" r="4" fill="#d7dce3" stroke="none" stroke-width="1"/>
<line x1="80" y1="372.5147706270218" x2="1120" y2="372.5147706270218" stroke="#4fd1a5" stroke-width="2"/>
<text x="84" y="366.5147706270218" font-family="monospace" font-size="13" fill="#3a4655" text-anchor="start" letter-spacing="1">04.0</text>
<circle cx="1120" cy="372.5147706270218" r="4" fill="#4fd1a5" stroke="none" stroke-width="1"/>
<line x1="80" y1="457.5284284353256" x2="1120" y2="457.5284284353256" stroke="#3a4655" stroke-width="1"/>
<text x="84" y="451.5284284353256" font-family="monospace" font-size="13" fill="#3a4655" text-anchor="start" letter-spacing="1">05.0</text>
<circle cx="1120" cy="457.5284284353256" r="4" fill="#d7dce3" stroke="none" stroke-width="1"/>
<line x1="80" y1="525.2747019426897" x2="1120" y2="525.2747019426897" stroke="#3a4655" stroke-width="1"/>
<text x="84" y="519.2747019426897" font-family="monospace" font-size="13" fill="#3a4655" text-anchor="start" letter-spacing="1">06.0</text>
<circle cx="1120" cy="525.2747019426897" r="4" fill="#d7dce3" stroke="none" stroke-width="1"/>
<line x1="80" y1="603.2191173965111" x2="1120" y2="603.2191173965111" stroke="#3a4655" stroke-width="1"/>
<text x="84" y="597.2191173965111" font-family="monospace" font-size="13" fill="#3a4655" text-anchor="start" letter-spacing="1">07.0</text>
<circle cx="1120" cy="603.2191173965111" r="4" fill="#d7dce3" stroke="none" stroke-width="1"/>
<line x1="80" y1="699.1450322372839" x2="1120" y2="699.1450322372839" stroke="#3a4655" stroke-width="1"/>
<text x="84" y="693.1450322372839" font-family="monospace" font-size="13" fill="#3a4655" text-anchor="start" letter-spacing="1">08.0</text>
<circle cx="1120" cy="699.1450322372839" r="4" fill="#d7dce3" stroke="none" stroke-width="1"/>
<text x="80" y="60" font-family="monospace" font-size="15" fill="#3a4655" text-anchor="start" letter-spacing="1">TRACE MATRIX // 004</text>
<text x="1120" y="760" font-family="monospace" font-size="14" fill="#3a4655" text-anchor="end" letter-spacing="1">ls -l /dev/tty*</text>
  </svg>