<svg xmlns="http://www.w3.org/2000/svg" viewBox="0 0 1200 800" width="1200" height="800" role="img" aria-label="study-01">
  <rect width="1200" height="800" fill="#0d1117"/>
  <rect x="0" y="0" width="1200" height="800" fill="#0d1117" stroke="undefined" stroke-width="1"/>
<line x1="0" y1="0" x2="0" y2="800" stroke="#2c3540" stroke-width="0.5"/><line x1="80" y1="0" x2="80" y2="800" stroke="#2c3540" stroke-width="0.5"/><line x1="160" y1="0" x2="160" y2="800" stroke="#2c3540" stroke-width="0.5"/><line x1="240" y1="0" x2="240" y2="800" stroke="#2c3540" stroke-width="0.5"/><line x1="320" y1="0" x2="320" y2="800" stroke="#2c3540" stroke-width="0.5"/><line x1="400" y1="0" x2="400" y2="800" stroke="#2c3540" stroke-width="0.5"/><line x1="480" y1="0" x2="480" y2="800" stroke="#2c3540" stroke-width="0.5"/><line x1="560" y1="0" x2="560" y2="800" stroke="#2c3540" stroke-width="0.5"/><line x1="640" y1="0" x2="640" y2="800" stroke="#2c3540" stroke-width="0.5"/><line x1="720" y1="0" x2="720" y2="800" stroke="#2c3540" stroke-width="0.5"/><line x1="800" y1="0" x2="800" y2="800" stroke="#2c3540" stroke-width="0.5"/><line x1="880" y1="0" x2="880" y2="800" stroke="#2c3540" stroke-width="0.5"/><line x1="960" y1="0" x2="960" y2="800" stroke="#2c3540" stroke-width="0.5"/><line x1="1040" y1="0" x2="1040" y2="800" stroke="#2c3540" stroke-width="0.5"/><line x1="1120" y1="0" x2="1120" y2="800" stroke="#2c3540" stroke-width="0.5"/><line x1="1200" y1="0" x2="1200" y2="800" stroke="#2c3540" stroke-width="0.5"/><line x1="0" y1="0" x2="1200" y2="0" stroke="#2c3540" stroke-width="0.5"/><line x1="0" y1="80" x2="1200" y2="80" stroke="#2c3540" stroke-width="0.5"/><line x1="0" y1="160" x2="1200" y2="160" stroke="#2c3540" stroke-width="0.5"/><line x1="0" y1="240" x2="1200" y2="240" stroke="#2c3540" stroke-width="0.5"/><line x1="0" y1="320" x2="1200" y2="320" stroke="#2c3540" stroke-width="0.5"/><line x1="0" y1="400" x2="1200" y2="400" stroke="#2c3540" stroke-width="0.5"/><line x1="0" y1="480" x2="1200" y2="480" stroke="#2c3540" stroke-width="0.5"/><line x1="0" y1="560" x2="1200" y2="560" stroke="#2c3540" stroke-width="0.5"/><line x1="0" y1="640" x2="1200" y2="640" stroke="#2c3540" stroke-width="0.5"/><line x1="0" y1="720" x2="1200" y2="720" stroke="#2c3540" stroke-width="0.5"/><line x1="0" y1="800" x2="1200" y2="800" stroke="#2c3540" stroke-width="0.5"/>
<line x1="80" y1="129.18448437936604" x2="1120" y2="129.18448437936604" stroke="#3a4655" stroke-width="1"/>
<text x="84" y="123.18448437936604" font-family="monospace" font-size="13" fill="#3a4655" text-anchor="start" letter-spacing="1">01.0</text>
<circle cx="1120" cy="129.18448437936604" r="4" fill="#d7dce3" stroke="none" stroke-width="1"/>
<line x1="80" y1="213.50516804959625" x2="1120" y2="213.50516804959625" stroke="#3a4655" stroke-width="1"/>
<text x="84" y="207.50516804959625" font-family="monospace" font-size="13" fill="#3a4655" text-anchor="start" letter-spacing="1">02.0</text>
<circle cx="1120" cy="213.50516804959625" r="4" fill="#d7dce3" stroke="none" stroke-width="1"/>
<line x1="80" y1="280.7358937570825" x2="1120" y2="280.7358937570825" stroke="#3a4655" stroke-width="1"/>
<text x="84" y="274.7358937570825" font-family="monospace" font-size="13" fill="#3a4655" text-anchor="start" letter-spacing="1">03.0</text>
<circle cx="1120" cy="280.7358937570825" r="4" fill="#d7dce3" stroke="none" stroke-width="1"/>
<line x1="80" y1="369.1133901197463" x2="1120" y2="369.1133901197463" stroke="#4fd1a5" stroke-width="2"/>
<text x="84" y="363.1133901197463" font-family="monospace" font-size="13" fill="#3a4655" text-anchor="start" letter-spacing="1">04.0</text>
<circle cx="1120" cy="369.1133901197463" r="4" fill="#4fd1a5" stroke="none" stroke-width="1"/>
<line x1="80" y1="442.91336567141116" x2="1120" y2="442.91336567141116" stroke="#3a4655" stroke-width="1"/>
<text x="84" y="436.91336567141116" font-family="monospace" font-size="13" fill="#3a4655" text-anchor="start" letter-spacing="1">05.0</text>
<circle cx="1120" cy="442.91336567141116" r="4" fill="#d7dce3" stroke="none" stroke-width="1"/>
<line x1="80" y1="535.8484246395528" x2="1120" y2="535.8484246395528" stroke="#3a4655" stroke-width="1"/>
<text x="84" y="529.8484246395528" font-family="monospace" font-size="13" fill="#3a4655" text-anchor="start" letter-spacing="1">06.0</text>
<circle cx="1120" cy="535.8484246395528" r="4" fill="#d7dce3" stroke="none" stroke-width="1"/>
<line x1="80" y1="605.0256495596841" x2="1120" y2="605.0256495596841" stroke="#3a4655" stroke-width="1"/>
<text x="84" y="599.0256495596841" font-family="monospace" font-size="13" fill="#3a4655" text-anchor="start" letter-spacing="1">07.0</text>
<circle cx="1120" cy="605.0256495596841" r="4" fill="#d7dce3" stroke="none" stroke-width="1"/>
<line x1="80" y1="696.2536929501221" x2="1120" y2="696.2536929501221" stroke="#3a4655" stroke-width="1"/>
<text x="84" y="690.2536929501221" font-family="monospace" font-size="13" fill="#3a4655" text-anchor="start" letter-spacing="1">08.0</text>
<circle cx="1120" cy="696.2536929501221" r="4" fill="#d7dce3" stroke="none" stroke-width="1"/>
<text x="80" y="60" font-family="monospace" font-size="15" fill="#3a4655" text-anchor="start" letter-spacing="1">TRACE MATRIX // 004</text>
<text x="1120" y="760" font-family="monospace" font-size="14" fill="#3a4655" text-anchor="end" letter-spacing="1">ls -l /dev/tty*</text>
  </svg>